PathFileType	4	(X/Y/Z)	./resultDataOpenSim/trcMotMarkerGrf/sub10/qtm-02-03.trc
DataRate	CameraRate	NumFrames	NumMarkers	Units	OrigDataRate	OrigDataStartFrame	OrigNumFrames
250.000000	250.000000	13	24	m	250.000000	1	477
Frame#	Time	L.Toe.Tip			R.Toe.Tip			L.Ankle.Lat			R.Ankle.Lat			L.Ankle.Med			R.Ankle.Med			L.Heel			R.Heel			L.Knee.Lat			R.Knee.Lat			L.Knee.Med			R.Knee.Med			L.Thigh.Upper			R.Thigh.Upper			L.ASIS			R.ASIS			V.Sacral			L.Acromium			R.Acromium			C7			L.Elbow			R.Elbow			L.Wrist.Lat			R.Wrist.Lat
		X1	Y1	Z1	X2	Y2	Z2	X3	Y3	Z3	X4	Y4	Z4	X5	Y5	Z5	X6	Y6	Z6	X7	Y7	Z7	X8	Y8	Z8	X9	Y9	Z9	X10	Y10	Z10	X11	Y11	Z11	X12	Y12	Z12	X13	Y13	Z13	X14	Y14	Z14	X15	Y15	Z15	X16	Y16	Z16	X17	Y17	Z17	X18	Y18	Z18	X19	Y19	Z19	X20	Y20	Z20	X21	Y21	Z21	X22	Y22	Z22	X23	Y23	Z23	X24	Y24	Z24

1	0	-1.4923034	0.039079846	-0.1452437	-1.067125	0.07064844	0.025683715	-1.6232253	0.064766798	-0.18392092	-1.208067	0.06738988	0.014939952	-1.6261602	0.087588048	-0.10018583	-1.1689828	0.10325044	-0.053878611	NaN	NaN	NaN	-1.2339555	0.038159972	-0.052008862	-1.5069908	0.43341981	-0.21468304	-1.2453516	0.46500323	0.063195917	-1.5181318	0.41433484	-0.093826478	-1.20523	0.48086131	-0.056926525	-1.4178954	0.81839666	-0.27355339	-1.4130977	0.84638897	0.10636437	-1.3515726	0.92483114	-0.21261264	-1.3433606	0.93657649	0.032880933	-1.5464256	0.94615926	-0.081482568	-1.3478068	1.3986467	-0.24342802	-1.3986638	1.3916863	0.077521109	-1.453877	1.4318356	-0.09971101	-1.4017351	1.0532252	-0.30193607	-1.5573509	1.0769246	0.091558304	-1.2025915	0.90106795	-0.27923643	-1.476169	0.85849761	0.17096668
2	0.004	-1.4925858	0.038893319	-0.14484526	-1.0505383	0.0733634	0.02646278	-1.6231026	0.064903257	-0.18364741	-1.1906854	0.067178574	0.017215304	-1.6258734	0.087677857	-0.099972613	-1.1538956	0.10340347	-0.052245967	NaN	NaN	NaN	-1.2172647	0.036779274	-0.049834345	-1.5044604	0.43283179	-0.21425666	-1.2393557	0.46332496	0.064096597	-1.5148681	0.41383587	-0.093566415	-1.1998932	0.47903313	-0.056280139	-1.4138663	0.81738	-0.27341571	-1.4036664	0.84584385	0.10774829	-1.3470592	0.92371774	-0.21250732	-1.3374417	0.93573131	0.033105089	-1.5412133	0.94472187	-0.080295661	-1.342872	1.3972832	-0.24337044	-1.3941138	1.3904819	0.077670248	-1.4491689	1.430655	-0.099723675	-1.3951688	1.0514553	-0.30087085	-1.5531321	1.0763198	0.091715554	-1.1941757	0.90201445	-0.27691064	-1.473688	0.85747912	0.17131124
3	0.008	-1.4929204	0.038700182	-0.14439213	-1.03408	0.07620222	0.027125574	-1.6229841	0.06507187	-0.18337779	-1.1737697	0.066901381	0.019443143	-1.6255959	0.087803711	-0.099772402	-1.1389077	0.10367219	-0.050573075	NaN	NaN	NaN	-1.200716	0.035511785	-0.047574265	-1.5018959	0.43222357	-0.21382457	-1.233311	0.46166015	0.06504707	-1.5118127	0.41327037	-0.093212412	-1.1945268	0.47716454	-0.055643917	-1.4097767	0.81635604	-0.2731904	-1.3954308	0.845061	0.10884971	-1.3425327	0.92257374	-0.21240227	-1.3315057	0.93485202	0.033342401	-1.535973	0.94325897	-0.079094223	-1.3379752	1.395907	-0.24331913	-1.389423	1.3892517	0.077802764	-1.4444368	1.4294553	-0.09972108	-1.3886091	1.0496815	-0.29981911	-1.5490288	1.0756911	0.0918106	-1.1857885	0.90294776	-0.27458495	-1.4711631	0.85645021	0.17165485
4	0.012	-1.4932002	0.038539328	-0.14401473	-1.0179118	0.079211906	0.02777654	-1.6228665	0.065273469	-0.1831317	-1.1574284	0.066606204	0.021615089	-1.6253324	0.08798185	-0.099589669	-1.124089	0.10410454	-0.048853951	NaN	NaN	NaN	-1.1843652	0.034430615	-0.045201283	-1.499275	0.43158039	-0.21339338	-1.2272589	0.46000088	0.066048732	-1.5089499	0.4126448	-0.092752582	-1.1891172	0.47523313	-0.055033122	-1.4055976	0.81531651	-0.27286527	-1.3884623	0.8440054	0.10964674	-1.3379787	0.92138901	-0.21228875	-1.3255305	0.93392394	0.033596507	-1.5306934	0.94175755	-0.077870519	-1.3331077	1.3945045	-0.24326908	-1.3845611	1.3879778	0.077925432	-1.4396659	1.4282269	-0.099698969	-1.3820813	1.0478771	-0.29885222	-1.5450314	1.0750089	0.091821506	-1.1774408	0.90386555	-0.27226115	-1.4686034	0.85538653	0.17199319
5	0.016	-1.4933243	0.038438039	-0.14382494	-1.0021909	0.08236052	0.028642782	-1.6227393	0.065491179	-0.18293152	-1.1415566	0.066410131	0.02377478	-1.6250736	0.088195751	-0.099416347	-1.1095763	0.10468162	-0.047106358	NaN	NaN	NaN	-1.1682613	0.033548188	-0.042732448	-1.4965958	0.43090513	-0.21297001	-1.2212405	0.45833864	0.067077671	-1.5060834	0.41199316	-0.09226234	-1.1837448	0.47323776	-0.054470304	-1.4013377	0.8142574	-0.27247524	-1.3820863	0.84278776	0.11028956	-1.3333909	0.92017481	-0.2121548	-1.3195046	0.9329473	0.033862378	-1.5253912	0.94021893	-0.076623095	-1.328239	1.3930721	-0.24320269	-1.3796085	1.3866533	0.078050642	-1.4348598	1.4269703	-0.099644348	-1.3756034	1.0460302	-0.29799336	-1.5410432	1.0742466	0.091757687	-1.1691479	0.90477356	-0.26994528	-1.4660792	0.85427049	0.17232106
6	0.02	-1.4933233	0.038378967	-0.14377701	-0.98693917	0.08561033	0.029784154	-1.6225913	0.065716316	-0.18277554	-1.1260604	0.066404402	0.025983447	-1.6247959	0.088417685	-0.099235856	-1.0955297	0.10537067	-0.045343199	NaN	NaN	NaN	-1.152509	0.032853059	-0.040146492	-1.4938658	0.43021252	-0.21255072	-1.2152502	0.45666925	0.068120364	-1.5030523	0.4113252	-0.091815038	-1.1785464	0.47118736	-0.053968357	-1.3970163	0.81318124	-0.27205741	-1.3757602	0.84150681	0.11090183	-1.328767	0.91894456	-0.21199428	-1.3134303	0.93192044	0.034128902	-1.5200816	0.93864675	-0.075347029	-1.3233445	1.3916186	-0.24310398	-1.3746665	1.3852797	0.078186415	-1.4300286	1.4256876	-0.099552908	-1.3691517	1.0441497	-0.29716522	-1.5369976	1.0734058	0.091641875	-1.1609186	0.90568084	-0.26763709	-1.4636937	0.85310274	0.17263147
7	0.024	-1.4932736	0.038336626	-0.14378036	-0.97210079	0.088961656	0.030983196	-1.6224162	0.065955754	-0.1826396	-1.1109211	0.066624626	0.028262898	-1.6244791	0.088644084	-0.099034018	-1.0820009	0.10615639	-0.043573689	NaN	NaN	NaN	-1.1371983	0.032356882	-0.037401449	-1.4910916	0.42951546	-0.21213124	-1.2093047	0.45499737	0.06917529	-1.4998794	0.41063687	-0.091407413	-1.1735612	0.46910407	-0.053508345	-1.3926562	0.81209417	-0.27164357	-1.369329	0.840203	0.11152769	-1.3241142	0.91771129	-0.21180963	-1.3073255	0.93084613	0.034381353	-1.5147674	0.93704474	-0.074039895	-1.3184234	1.3901557	-0.24297245	-1.3697779	1.38387	0.07834489	-1.4251783	1.4243845	-0.09942976	-1.3626952	1.0422483	-0.29629002	-1.5328998	1.0725164	0.091501635	-1.1527558	0.90659291	-0.26533308	-1.4614957	0.85189927	0.17291679
8	0.028	-1.4932222	0.038299594	-0.14378646	-0.95765889	0.092437356	0.03192033	-1.6222197	0.066230037	-0.18250799	-1.0961642	0.067064578	0.030592553	-1.6241167	0.088897837	-0.098803413	-1.0689278	0.10703183	-0.041808838	NaN	NaN	NaN	-1.1222882	0.032072751	-0.034527303	-1.4882692	0.4288212	-0.21171725	-1.203412	0.45335517	0.070248769	-1.4966762	0.4099241	-0.090998777	-1.1686863	0.46702218	-0.053041231	-1.3882757	0.81099846	-0.27125683	-1.362836	0.83888514	0.1121637	-1.319448	0.9164884	-0.21161286	-1.3012129	0.92973833	0.034608947	-1.5094441	0.93541989	-0.072710055	-1.3134911	1.3886843	-0.24281836	-1.3648978	1.3824471	0.078540141	-1.420302	1.4230683	-0.099264157	-1.356223	1.0403439	-0.29535597	-1.5287745	1.0716076	0.091361642	-1.1446596	0.90750942	-0.26303347	-1.459346	0.85069698	0.17318661
9	0.032	-1.493187	0.038263828	-0.14378421	-0.94363498	0.09603884	0.032410561	-1.6220344	0.066573089	-0.18240266	-1.081819	0.067691653	0.032950203	-1.6237104	0.089205751	-0.098539405	-1.0562484	0.10797908	-0.040057604	NaN	NaN	NaN	-1.107728	0.031969772	-0.031593558	-1.4853899	0.4281338	-0.21131887	-1.1975302	0.45178832	0.071351899	-1.4934498	0.40919195	-0.090588177	-1.1638095	0.46497454	-0.052511492	-1.383878	0.80989114	-0.27091112	-1.3563435	0.8375528	0.11279163	-1.31479	0.91527319	-0.21142547	-1.2951183	0.92861024	0.034809912	-1.5041036	0.93378701	-0.07136572	-1.3085546	1.3872002	-0.24264575	-1.3599511	1.3810288	0.07877661	-1.4153904	1.4217437	-0.099050233	-1.3497393	1.0384576	-0.29438383	-1.5246305	1.0706944	0.091241953	-1.136633	0.90842717	-0.26073909	-1.4569826	0.84954002	0.17347094
10	0.036	-1.4931744	0.038227023	-0.14377661	-0.93004606	0.099716659	0.032480358	-1.621927	0.067029982	-0.18238536	-1.0678904	0.068459679	0.03533467	-1.6232671	0.089578859	-0.098240773	-1.0439612	0.10896209	-0.038323081	NaN	NaN	NaN	-1.0936032	0.031994705	-0.02859218	-1.4824548	0.42745572	-0.21093853	-1.1916186	0.45032142	0.072497702	-1.4901048	0.40845753	-0.09020565	-1.1589034	0.46298483	-0.051878901	-1.3794605	0.80877115	-0.27061031	-1.349877	0.83620436	0.11340089	-1.3101663	0.91404421	-0.21126958	-1.2890633	0.9274653	0.034989137	-1.4987356	0.9321678	-0.070006377	-1.3035991	1.3857078	-0.24244494	-1.3549085	1.379619	0.079042325	-1.4104456	1.4204127	-0.098806717	-1.343254	1.0366029	-0.29339253	-1.5204658	1.0697834	0.091158606	-1.1286832	0.909344	-0.25844703	-1.4542968	0.84843818	0.17378841
11	0.04	-1.4931832	0.038189952	-0.14376485	-0.91689243	0.10336518	0.032301375	-1.6219517	0.067625601	-0.18250027	-1.0543831	0.069327318	0.037749645	-1.6227993	0.09000453	-0.0979187	-1.0321025	0.10993705	-0.036601009	NaN	NaN	NaN	-1.0800386	0.032131985	-0.02538006	-1.4794782	0.42678695	-0.2105683	-1.1856882	0.44895563	0.073693984	-1.4866158	0.40773527	-0.089849476	-1.1539933	0.46107306	-0.051128697	-1.3750235	0.80765203	-0.27032915	-1.3434297	0.83484376	0.11399107	-1.3055889	0.91278758	-0.21115164	-1.2830481	0.92630019	0.035151888	-1.4933344	0.93057807	-0.068636398	-1.2986053	1.3842216	-0.24220491	-1.3497906	1.3782171	0.079318971	-1.4054796	1.4190765	-0.098559922	-1.336781	1.0347859	-0.29240112	-1.5162754	1.0688807	0.091122672	-1.1208149	0.91026034	-0.25615584	-1.4514132	0.84736747	0.17413113
12	0.044	-1.4932017	0.038155188	-0.14374505	-0.90414783	0.10686039	0.03208354	-1.6220565	0.068310146	-0.18267294	-1.0413313	0.070268215	0.04018225	-1.6223279	0.090465944	-0.097600437	-1.0206949	0.11087175	-0.034881605	NaN	NaN	NaN	-1.0670728	0.032393734	-0.021757712	-1.4764703	0.42612771	-0.21019758	-1.179742	0.44768803	0.074942128	-1.4830568	0.40702941	-0.0894872	-1.149103	0.45926013	-0.050273062	-1.3705631	0.80656417	-0.27001452	-1.3369743	0.83348458	0.11456598	-1.3010182	0.9115214	-0.21104801	-1.2770529	0.92511062	0.035300109	-1.4879024	0.92901841	-0.067273129	-1.293576	1.3827551	-0.24192778	-1.3446328	1.3768321	0.079602377	-1.4005002	1.417737	-0.09832007	-1.3303287	1.0330114	-0.29142083	-1.5120538	1.0679884	0.09113214	-1.113026	0.91117709	-0.25387153	-1.4485021	0.84631187	0.17448295
13	0.048	-1.4932101	0.038123797	-0.14371392	-0.89176209	0.1101245	0.031950425	-1.6220919	0.068986493	-0.18273092	-1.0287742	0.071259533	0.042608462	-1.6218774	0.090967072	-0.097313947	-1.009731	0.11174868	-0.033154768	NaN	NaN	NaN	-1.0546765	0.032754977	-0.017747079	-1.47342	0.42548654	-0.20981996	-1.1736121	0.44653651	0.076271624	-1.4793888	0.40634663	-0.089132408	-1.1442318	0.45756279	-0.049343085	-1.3660756	0.80553156	-0.26963555	-1.3304973	0.83213478	0.11513126	-1.2963591	0.91029463	-0.21091034	-1.2710614	0.92389592	0.035431931	-1.4824458	0.92748344	-0.065933812	-1.2885337	1.3813174	-0.24162396	-1.3394805	1.375478	0.079905268	-1.3955028	1.4164004	-0.098071613	-1.3238836	1.0312811	-0.29042985	-1.5077856	1.0670835	0.091148602	-1.1053114	0.91209388	-0.25160258	-1.4456415	0.8452738	0.17483126
